<svg width="119" height="50" viewBox="0 0 119 50" fill="none" xmlns="http://www.w3.org/2000/svg">
<path d="M39.6889 21.8444C39.6889 32.8042 30.8042 41.6889 19.8444 41.6889C8.88466 41.6889 0 32.8042 0 21.8444C0 10.8847 8.88466 2 19.8444 2C30.8042 2 39.6889 10.8847 39.6889 21.8444Z" fill="url(#paint0_linear_26_199)"/>
<path d="M50.5222 19.8444C50.5222 30.8042 41.6375 39.6889 30.6778 39.6889C19.718 39.6889 10.8333 30.8042 10.8333 19.8444C10.8333 8.88466 19.718 0 30.6778 0C41.6375 0 50.5222 8.88466 50.5222 19.8444Z" fill="url(#paint1_linear_26_199)"/>
<path d="M54.6889 29.8444C54.6889 40.8042 45.8042 49.6889 34.8444 49.6889C23.8847 49.6889 15 40.8042 15 29.8444C15 18.8847 23.8847 10 34.8444 10C45.8042 10 54.6889 18.8847 54.6889 29.8444Z" fill="url(#paint2_linear_26_199)"/>
<path d="M70.976 11.088C70.896 11.216 70.812 11.308 70.724 11.364C70.636 11.412 70.524 11.436 70.388 11.436C70.244 11.436 70.088 11.396 69.92 11.316C69.76 11.236 69.572 11.148 69.356 11.052C69.14 10.948 68.892 10.856 68.612 10.776C68.34 10.696 68.016 10.656 67.64 10.656C67.056 10.656 66.596 10.78 66.26 11.028C65.932 11.276 65.768 11.6 65.768 12C65.768 12.264 65.852 12.488 66.02 12.672C66.196 12.848 66.424 13.004 66.704 13.14C66.992 13.276 67.316 13.4 67.676 13.512C68.036 13.616 68.4 13.732 68.768 13.86C69.144 13.988 69.512 14.136 69.872 14.304C70.232 14.464 70.552 14.672 70.832 14.928C71.12 15.176 71.348 15.476 71.516 15.828C71.692 16.18 71.78 16.604 71.78 17.1C71.78 17.692 71.672 18.24 71.456 18.744C71.248 19.24 70.936 19.672 70.52 20.04C70.104 20.4 69.588 20.684 68.972 20.892C68.364 21.092 67.66 21.192 66.86 21.192C66.436 21.192 66.02 21.152 65.612 21.072C65.212 21 64.824 20.896 64.448 20.76C64.08 20.624 63.736 20.464 63.416 20.28C63.104 20.096 62.828 19.896 62.588 19.68L63.272 18.552C63.36 18.416 63.464 18.312 63.584 18.24C63.704 18.168 63.856 18.132 64.04 18.132C64.224 18.132 64.396 18.184 64.556 18.288C64.724 18.392 64.916 18.504 65.132 18.624C65.348 18.744 65.6 18.856 65.888 18.96C66.184 19.064 66.556 19.116 67.004 19.116C67.356 19.116 67.656 19.076 67.904 18.996C68.16 18.908 68.368 18.796 68.528 18.66C68.696 18.524 68.816 18.368 68.888 18.192C68.968 18.008 69.008 17.82 69.008 17.628C69.008 17.34 68.92 17.104 68.744 16.92C68.576 16.736 68.348 16.576 68.06 16.44C67.78 16.304 67.456 16.184 67.088 16.08C66.728 15.968 66.356 15.848 65.972 15.72C65.596 15.592 65.224 15.444 64.856 15.276C64.496 15.1 64.172 14.88 63.884 14.616C63.604 14.352 63.376 14.028 63.2 13.644C63.032 13.26 62.948 12.796 62.948 12.252C62.948 11.748 63.048 11.268 63.248 10.812C63.448 10.356 63.74 9.96 64.124 9.624C64.516 9.28 65 9.008 65.576 8.808C66.16 8.6 66.832 8.496 67.592 8.496C68.44 8.496 69.212 8.636 69.908 8.916C70.604 9.196 71.184 9.564 71.648 10.02L70.976 11.088ZM90.9789 8.688V21H89.1669C88.7749 21 88.5269 20.82 88.4229 20.46L88.2189 19.476C87.7149 19.988 87.1589 20.404 86.5509 20.724C85.9429 21.036 85.2269 21.192 84.4029 21.192C83.7309 21.192 83.1349 21.08 82.6149 20.856C82.1029 20.624 81.6709 20.3 81.3189 19.884C80.9669 19.468 80.6989 18.976 80.5149 18.408C80.3389 17.832 80.2509 17.2 80.2509 16.512V8.688H83.2149V16.512C83.2149 17.264 83.3869 17.848 83.7309 18.264C84.0829 18.672 84.6069 18.876 85.3029 18.876C85.8149 18.876 86.2949 18.764 86.7429 18.54C87.1909 18.308 87.6149 17.992 88.0149 17.592V8.688H90.9789ZM100.278 21V8.688H102.09C102.474 8.688 102.726 8.868 102.846 9.228L103.038 10.14C103.254 9.9 103.478 9.68 103.71 9.48C103.95 9.28 104.202 9.108 104.466 8.964C104.738 8.82 105.026 8.708 105.33 8.628C105.642 8.54 105.982 8.496 106.35 8.496C107.126 8.496 107.762 8.708 108.258 9.132C108.762 9.548 109.138 10.104 109.386 10.8C109.578 10.392 109.818 10.044 110.106 9.756C110.394 9.46 110.71 9.22 111.054 9.036C111.398 8.852 111.762 8.716 112.146 8.628C112.538 8.54 112.93 8.496 113.322 8.496C114.002 8.496 114.606 8.6 115.134 8.808C115.662 9.016 116.106 9.32 116.466 9.72C116.826 10.12 117.098 10.608 117.282 11.184C117.474 11.76 117.57 12.42 117.57 13.164V21H114.606V13.164C114.606 12.38 114.434 11.792 114.09 11.4C113.746 11 113.242 10.8 112.578 10.8C112.274 10.8 111.99 10.852 111.726 10.956C111.47 11.06 111.242 11.212 111.042 11.412C110.85 11.604 110.698 11.848 110.586 12.144C110.474 12.44 110.418 12.78 110.418 13.164V21H107.442V13.164C107.442 12.34 107.274 11.74 106.938 11.364C106.61 10.988 106.126 10.8 105.486 10.8C105.054 10.8 104.65 10.908 104.274 11.124C103.906 11.332 103.562 11.62 103.242 11.988V21H100.278ZM69.968 36.744C69.112 36.784 68.392 36.86 67.808 36.972C67.224 37.076 66.756 37.212 66.404 37.38C66.052 37.548 65.8 37.744 65.648 37.968C65.496 38.192 65.42 38.436 65.42 38.7C65.42 39.22 65.572 39.592 65.876 39.816C66.188 40.04 66.592 40.152 67.088 40.152C67.696 40.152 68.22 40.044 68.66 39.828C69.108 39.604 69.544 39.268 69.968 38.82V36.744ZM63.176 31.404C64.592 30.108 66.296 29.46 68.288 29.46C69.008 29.46 69.652 29.58 70.22 29.82C70.788 30.052 71.268 30.38 71.66 30.804C72.052 31.22 72.348 31.72 72.548 32.304C72.756 32.888 72.86 33.528 72.86 34.224V42H71.516C71.236 42 71.02 41.96 70.868 41.88C70.716 41.792 70.596 41.62 70.508 41.364L70.244 40.476C69.932 40.756 69.628 41.004 69.332 41.22C69.036 41.428 68.728 41.604 68.408 41.748C68.088 41.892 67.744 42 67.376 42.072C67.016 42.152 66.616 42.192 66.176 42.192C65.656 42.192 65.176 42.124 64.736 41.988C64.296 41.844 63.916 41.632 63.596 41.352C63.276 41.072 63.028 40.724 62.852 40.308C62.676 39.892 62.588 39.408 62.588 38.856C62.588 38.544 62.64 38.236 62.744 37.932C62.848 37.62 63.016 37.324 63.248 37.044C63.488 36.764 63.796 36.5 64.172 36.252C64.548 36.004 65.008 35.788 65.552 35.604C66.104 35.42 66.744 35.272 67.472 35.16C68.2 35.04 69.032 34.968 69.968 34.944V34.224C69.968 33.4 69.792 32.792 69.44 32.4C69.088 32 68.58 31.8 67.916 31.8C67.436 31.8 67.036 31.856 66.716 31.968C66.404 32.08 66.128 32.208 65.888 32.352C65.648 32.488 65.428 32.612 65.228 32.724C65.036 32.836 64.82 32.892 64.58 32.892C64.372 32.892 64.196 32.84 64.052 32.736C63.908 32.624 63.792 32.496 63.704 32.352L63.176 31.404ZM84.9755 38.808C85.3115 39.216 85.6755 39.504 86.0675 39.672C86.4675 39.84 86.8995 39.924 87.3635 39.924C87.8115 39.924 88.2155 39.84 88.5755 39.672C88.9355 39.504 89.2395 39.248 89.4875 38.904C89.7435 38.56 89.9395 38.128 90.0755 37.608C90.2115 37.08 90.2795 36.46 90.2795 35.748C90.2795 35.028 90.2195 34.42 90.0995 33.924C89.9875 33.42 89.8235 33.012 89.6075 32.7C89.3915 32.388 89.1275 32.16 88.8155 32.016C88.5115 31.872 88.1635 31.8 87.7715 31.8C87.1555 31.8 86.6315 31.932 86.1995 32.196C85.7675 32.452 85.3595 32.816 84.9755 33.288V38.808ZM84.8195 31.368C85.3235 30.8 85.8955 30.34 86.5355 29.988C87.1755 29.636 87.9275 29.46 88.7915 29.46C89.4635 29.46 90.0755 29.6 90.6275 29.88C91.1875 30.16 91.6675 30.568 92.0675 31.104C92.4755 31.632 92.7875 32.288 93.0035 33.072C93.2275 33.848 93.3395 34.74 93.3395 35.748C93.3395 36.668 93.2155 37.52 92.9675 38.304C92.7195 39.088 92.3635 39.768 91.8995 40.344C91.4435 40.92 90.8875 41.372 90.2315 41.7C89.5835 42.02 88.8555 42.18 88.0475 42.18C87.3595 42.18 86.7715 42.076 86.2835 41.868C85.7955 41.652 85.3595 41.356 84.9755 40.98V46.02H82.0115V29.688H83.8235C84.2075 29.688 84.4595 29.868 84.5795 30.228L84.8195 31.368ZM104.976 38.808C105.312 39.216 105.676 39.504 106.068 39.672C106.468 39.84 106.9 39.924 107.364 39.924C107.812 39.924 108.216 39.84 108.576 39.672C108.936 39.504 109.24 39.248 109.488 38.904C109.744 38.56 109.94 38.128 110.076 37.608C110.212 37.08 110.28 36.46 110.28 35.748C110.28 35.028 110.22 34.42 110.1 33.924C109.988 33.42 109.824 33.012 109.608 32.7C109.392 32.388 109.128 32.16 108.816 32.016C108.512 31.872 108.164 31.8 107.772 31.8C107.156 31.8 106.632 31.932 106.2 32.196C105.768 32.452 105.36 32.816 104.976 33.288V38.808ZM104.82 31.368C105.324 30.8 105.896 30.34 106.536 29.988C107.176 29.636 107.928 29.46 108.792 29.46C109.464 29.46 110.076 29.6 110.628 29.88C111.188 30.16 111.668 30.568 112.068 31.104C112.476 31.632 112.788 32.288 113.004 33.072C113.228 33.848 113.34 34.74 113.34 35.748C113.34 36.668 113.216 37.52 112.968 38.304C112.72 39.088 112.364 39.768 111.9 40.344C111.444 40.92 110.888 41.372 110.232 41.7C109.584 42.02 108.856 42.18 108.048 42.18C107.36 42.18 106.772 42.076 106.284 41.868C105.796 41.652 105.36 41.356 104.976 40.98V46.02H102.012V29.688H103.824C104.208 29.688 104.46 29.868 104.58 30.228L104.82 31.368Z" fill="#1D2572"/>
<defs>
<linearGradient id="paint0_linear_26_199" x1="19.8444" y1="2" x2="19.8444" y2="41.6889" gradientUnits="userSpaceOnUse">
<stop stop-color="#1D2572"/>
<stop offset="1" stop-color="#5C1FC0" stop-opacity="0.31"/>
</linearGradient>
<linearGradient id="paint1_linear_26_199" x1="30.6778" y1="0" x2="30.6778" y2="39.6889" gradientUnits="userSpaceOnUse">
<stop stop-color="#1D2572"/>
<stop offset="1" stop-color="#5C1FC0" stop-opacity="0.31"/>
</linearGradient>
<linearGradient id="paint2_linear_26_199" x1="34.8444" y1="10" x2="34.8444" y2="49.6889" gradientUnits="userSpaceOnUse">
<stop stop-color="#1D2572"/>
<stop offset="1" stop-color="#5C1FC0" stop-opacity="0.31"/>
</linearGradient>
</defs>
</svg>
