<svg fill="none" height="50" viewBox="0 0 119 50" width="119" xmlns="http://www.w3.org/2000/svg" xmlns:xlink="http://www.w3.org/1999/xlink"><linearGradient id="a" gradientUnits="userSpaceOnUse" x1="19.8444" x2="19.8444" y1="2" y2="41.6889"><stop offset="0" stop-color="#1d2572"/><stop offset="1" stop-color="#5c1fc0" stop-opacity=".31"/></linearGradient><linearGradient id="b" gradientUnits="userSpaceOnUse" x1="30.6778" x2="30.6778" y1="0" y2="39.6889"><stop offset="0" stop-color="#1d3a72"/><stop offset="1" stop-color="#5c1fc0" stop-opacity=".31"/></linearGradient><linearGradient id="c" gradientUnits="userSpaceOnUse" x1="34.8444" x2="34.8444" y1="10" y2="49.6889"><stop offset="0" stop-color="#792c86" stop-opacity=".72"/><stop offset="1" stop-color="#5c1fc0" stop-opacity=".31"/></linearGradient><linearGradient id="d" gradientUnits="userSpaceOnUse" x1="90.5" x2="91" y1="1" y2="73"><stop offset="0" stop-color="#1d2572"/><stop offset="1" stop-color="#a357af"/></linearGradient><path d="m39.6889 21.8444c0 10.9598-8.8847 19.8445-19.8445 19.8445-10.95974 0-19.8444-8.8847-19.8444-19.8445 0-10.9597 8.88466-19.8444 19.8444-19.8444 10.9598 0 19.8445 8.8847 19.8445 19.8444z" fill="url(#a)"/><path d="m50.5222 19.8444c0 10.9598-8.8846 19.8445-19.8444 19.8445s-19.8445-8.8847-19.8445-19.8445c0-10.95974 8.8847-19.8444 19.8445-19.8444s19.8444 8.88466 19.8444 19.8444z" fill="url(#b)"/><path d="m54.6889 29.8444c0 10.9598-8.8847 19.8445-19.8445 19.8445-10.9597 0-19.8444-8.8847-19.8444-19.8445 0-10.9597 8.8847-19.8444 19.8444-19.8444 10.9598 0 19.8445 8.8847 19.8445 19.8444z" fill="url(#c)"/><path d="m70.976 11.088c-.08.128-.164.22-.252.276-.088.048-.2.072-.336.072-.144 0-.3-.04-.468-.12-.16-.08-.348-.168-.564-.264-.216-.104-.464-.196-.744-.276-.272-.08-.596-.12-.972-.12-.584 0-1.044.124-1.38.372-.328.248-.492.572-.492.972 0 .264.084.488.252.672.176.176.404.332.684.468.288.136.612.26.972.372.36.104.724.22 1.092.348.376.128.744.276 1.104.444.36.16.68.368.96.624.288.248.516.548.684.9.176.352.264.776.264 1.272 0 .592-.108 1.14-.324 1.644-.208.496-.52.928-.936 1.296-.416.36-.932.644-1.548.852-.608.2-1.312.3-2.112.3-.424 0-.84-.04-1.248-.12-.4-.072-.788-.176-1.164-.312-.368-.136-.712-.296-1.032-.48-.312-.184-.588-.384-.828-.6l.684-1.128c.088-.136.192-.24.312-.312s.272-.108.456-.108.356.052.516.156c.168.104.36.216.576.336s.468.232.756.336c.296.104.668.156 1.116.156.352 0 .652-.04.9-.12.256-.088.464-.2.624-.336.168-.136.288-.292.36-.468.08-.184.12-.372.12-.564 0-.288-.088-.524-.264-.708-.168-.184-.396-.344-.684-.48-.28-.136-.604-.256-.972-.36-.36-.112-.732-.232-1.116-.36-.376-.128-.748-.276-1.116-.444-.36-.176-.684-.396-.972-.66-.28-.264-.508-.588-.684-.972-.168-.384-.252-.848-.252-1.392 0-.504.1-.984.3-1.44s.492-.852.876-1.188c.392-.344.876-.616 1.452-.816.584-.208 1.256-.312 2.016-.312.848 0 1.62.14 2.316.42s1.276.648 1.74 1.104zm20.0029-2.4v12.312h-1.812c-.392 0-.64-.18-.744-.54l-.204-.984c-.504.512-1.06.928-1.668 1.248-.608.312-1.324.468-2.148.468-.672 0-1.268-.112-1.788-.336-.512-.232-.944-.556-1.296-.972s-.62-.908-.804-1.476c-.176-.576-.264-1.208-.264-1.896v-7.824h2.964v7.824c0 .752.172 1.336.516 1.752.352.408.876.612 1.572.612.512 0 .992-.112 1.44-.336.448-.232.872-.548 1.272-.948v-8.904zm9.2991 12.312v-12.312h1.812c.384 0 .636.18.756.54l.192.912c.216-.24.44-.46.672-.66.24-.2.492-.372.756-.516.272-.144.56-.256.864-.336.312-.088.652-.132 1.02-.132.776 0 1.412.212 1.908.636.504.416.88.972 1.128 1.668.192-.408.432-.756.72-1.044.288-.296.604-.536.948-.72s.708-.32 1.092-.408c.392-.088.784-.132 1.176-.132.68 0 1.284.104 1.812.312s.972.512 1.332.912.632.888.816 1.464c.192.576.288 1.236.288 1.98v7.836h-2.964v-7.836c0-.784-.172-1.372-.516-1.764-.344-.4-.848-.6-1.512-.6-.304 0-.588.052-.852.156-.256.104-.484.256-.684.456-.192.192-.344.436-.456.732s-.168.636-.168 1.02v7.836h-2.976v-7.836c0-.824-.168-1.424-.504-1.8-.328-.376-.812-.564-1.452-.564-.432 0-.836.108-1.212.324-.368.208-.712.496-1.032.864v9.012zm-30.31 15.744c-.856.04-1.576.116-2.16.228-.584.104-1.052.24-1.404.408s-.604.364-.756.588-.228.468-.228.732c0 .52.152.892.456 1.116.312.224.716.336 1.212.336.608 0 1.132-.108 1.572-.324.448-.224.884-.56 1.308-1.008zm-6.792-5.34c1.416-1.296 3.12-1.944 5.112-1.944.72 0 1.364.12 1.932.36.568.232 1.048.56 1.44.984.392.416.688.916.888 1.5.208.584.312 1.224.312 1.92v7.776h-1.344c-.28 0-.496-.04-.648-.12-.152-.088-.272-.26-.36-.516l-.264-.888c-.312.28-.616.528-.912.744-.296.208-.604.384-.924.528s-.664.252-1.032.324c-.36.08-.76.12-1.2.12-.52 0-1-.068-1.44-.204-.44-.144-.82-.356-1.14-.636s-.568-.628-.744-1.044-.264-.9-.264-1.452c0-.312.052-.62.156-.924.104-.312.272-.608.504-.888.24-.28.548-.544.924-.792s.836-.464 1.38-.648c.552-.184 1.192-.332 1.92-.444.728-.12 1.56-.192 2.496-.216v-.72c0-.824-.176-1.432-.528-1.824-.352-.4-.86-.6-1.524-.6-.48 0-.88.056-1.2.168-.312.112-.588.24-.828.384-.24.136-.46.26-.66.372-.192.112-.408.168-.648.168-.208 0-.384-.052-.528-.156-.144-.112-.26-.24-.348-.384zm21.7995 7.404c.336.408.7.696 1.092.864.4.168.832.252 1.296.252.448 0 .852-.084 1.212-.252s.664-.424.912-.768c.256-.344.452-.776.588-1.296.136-.528.204-1.148.204-1.86 0-.72-.06-1.328-.18-1.824-.112-.504-.276-.912-.492-1.224s-.48-.54-.792-.684c-.304-.144-.652-.216-1.044-.216-.616 0-1.14.132-1.572.396-.432.256-.84.62-1.224 1.092zm-.156-7.44c.504-.568 1.076-1.028 1.716-1.38s1.392-.528 2.256-.528c.672 0 1.284.14 1.836.42.56.28 1.04.688 1.44 1.224.408.528.72 1.184.936 1.968.224.776.336 1.668.336 2.676 0 .92-.124 1.772-.372 2.556s-.604 1.464-1.068 2.04c-.456.576-1.012 1.028-1.668 1.356-.648.32-1.376.48-2.184.48-.688 0-1.276-.104-1.764-.312-.488-.216-.924-.512-1.308-.888v5.04h-2.964v-16.332h1.812c.384 0 .636.18.756.54zm20.1565 7.44c.336.408.7.696 1.092.864.4.168.832.252 1.296.252.448 0 .852-.084 1.212-.252s.664-.424.912-.768c.256-.344.452-.776.588-1.296.136-.528.204-1.148.204-1.86 0-.72-.06-1.328-.18-1.824-.112-.504-.276-.912-.492-1.224s-.48-.54-.792-.684c-.304-.144-.652-.216-1.044-.216-.616 0-1.14.132-1.572.396-.432.256-.84.62-1.224 1.092zm-.156-7.44c.504-.568 1.076-1.028 1.716-1.38s1.392-.528 2.256-.528c.672 0 1.284.14 1.836.42.56.28 1.04.688 1.44 1.224.408.528.72 1.184.936 1.968.224.776.336 1.668.336 2.676 0 .92-.124 1.772-.372 2.556s-.604 1.464-1.068 2.04c-.456.576-1.012 1.028-1.668 1.356-.648.32-1.376.48-2.184.48-.688 0-1.276-.104-1.764-.312-.488-.216-.924-.512-1.308-.888v5.04h-2.964v-16.332h1.812c.384 0 .636.18.756.54z" fill="url(#d)"/></svg>